<svg xmlns="http://www.w3.org/2000/svg" xmlns:xlink="http://www.w3.org/1999/xlink" width="6240" zoomAndPan="magnify" viewBox="0 0 4680 1799.999925" height="2400" preserveAspectRatio="xMidYMid meet" version="1.0"><defs><g/><clipPath id="657ffe1ca0"><path d="M 1713.144531 1139.820312 L 2418.328125 1139.820312 L 2418.328125 1800 L 1713.144531 1800 Z M 1713.144531 1139.820312 " clip-rule="nonzero"/></clipPath><clipPath id="6be8b1e9b9"><path d="M 2065.734375 1139.820312 C 1871.007812 1139.820312 1713.144531 1297.679688 1713.144531 1492.410156 C 1713.144531 1687.140625 1871.007812 1845 2065.734375 1845 C 2260.464844 1845 2418.328125 1687.140625 2418.328125 1492.410156 C 2418.328125 1297.679688 2260.464844 1139.820312 2065.734375 1139.820312 Z M 2065.734375 1139.820312 " clip-rule="nonzero"/></clipPath><clipPath id="fd898586d9"><path d="M 1996.828125 1172.175781 L 2134.644531 1172.175781 L 2134.644531 1309.992188 L 1996.828125 1309.992188 Z M 1996.828125 1172.175781 " clip-rule="nonzero"/></clipPath><clipPath id="ed65bd1d49"><path d="M 2065.734375 1172.175781 C 2027.679688 1172.175781 1996.828125 1203.027344 1996.828125 1241.085938 C 1996.828125 1279.140625 2027.679688 1309.992188 2065.734375 1309.992188 C 2103.792969 1309.992188 2134.644531 1279.140625 2134.644531 1241.085938 C 2134.644531 1203.027344 2103.792969 1172.175781 2065.734375 1172.175781 Z M 2065.734375 1172.175781 " clip-rule="nonzero"/></clipPath></defs><g fill="#000000" fill-opacity="1"><g transform="translate(249.773322, 1101.627571)"><g><path d="M 573.5625 -417.9375 C 624.9375 -417.9375 665.8125 -402.375 696.1875 -371.25 C 726.570312 -340.132812 741.765625 -296.910156 741.765625 -241.578125 L 741.765625 0 L 615.796875 0 L 615.796875 -224.53125 C 615.796875 -251.207031 608.753906 -271.832031 594.671875 -286.40625 C 580.597656 -300.976562 561.207031 -308.265625 536.5 -308.265625 C 511.800781 -308.265625 492.410156 -300.976562 478.328125 -286.40625 C 464.253906 -271.832031 457.21875 -251.207031 457.21875 -224.53125 L 457.21875 0 L 331.234375 0 L 331.234375 -224.53125 C 331.234375 -251.207031 324.191406 -271.832031 310.109375 -286.40625 C 296.035156 -300.976562 276.648438 -308.265625 251.953125 -308.265625 C 227.253906 -308.265625 207.863281 -300.976562 193.78125 -286.40625 C 179.695312 -271.832031 172.65625 -251.207031 172.65625 -224.53125 L 172.65625 0 L 45.9375 0 L 45.9375 -413.5 L 172.65625 -413.5 L 172.65625 -361.625 C 185.5 -378.914062 202.296875 -392.625 223.046875 -402.75 C 243.796875 -412.875 267.265625 -417.9375 293.453125 -417.9375 C 324.578125 -417.9375 352.363281 -411.265625 376.8125 -397.921875 C 401.269531 -384.585938 420.414062 -365.570312 434.25 -340.875 C 448.570312 -363.601562 468.082031 -382.128906 492.78125 -396.453125 C 517.488281 -410.773438 544.414062 -417.9375 573.5625 -417.9375 Z M 573.5625 -417.9375 "/></g></g></g><g fill="#000000" fill-opacity="1"><g transform="translate(1034.525999, 1101.627571)"><g><path d="M 435.71875 -213.421875 C 435.71875 -201.554688 434.976562 -189.203125 433.5 -176.359375 L 146.71875 -176.359375 C 148.695312 -150.671875 156.972656 -131.035156 171.546875 -117.453125 C 186.117188 -103.867188 204.03125 -97.078125 225.28125 -97.078125 C 256.894531 -97.078125 278.875 -110.414062 291.21875 -137.09375 L 426.09375 -137.09375 C 419.175781 -109.914062 406.703125 -85.457031 388.671875 -63.71875 C 370.640625 -41.988281 348.035156 -24.945312 320.859375 -12.59375 C 293.691406 -0.25 263.3125 5.921875 229.71875 5.921875 C 189.207031 5.921875 153.144531 -2.71875 121.53125 -20 C 89.914062 -37.289062 65.210938 -61.992188 47.421875 -94.109375 C 29.640625 -126.222656 20.75 -163.769531 20.75 -206.75 C 20.75 -249.726562 29.515625 -287.269531 47.046875 -319.375 C 64.585938 -351.488281 89.164062 -376.191406 120.78125 -393.484375 C 152.40625 -410.773438 188.71875 -419.421875 229.71875 -419.421875 C 269.738281 -419.421875 305.304688 -411.019531 336.421875 -394.21875 C 367.546875 -377.425781 391.875 -353.46875 409.40625 -322.34375 C 426.945312 -291.21875 435.71875 -254.910156 435.71875 -213.421875 Z M 306.046875 -246.765625 C 306.046875 -268.503906 298.632812 -285.796875 283.8125 -298.640625 C 268.988281 -311.484375 250.460938 -317.90625 228.234375 -317.90625 C 206.992188 -317.90625 189.085938 -311.726562 174.515625 -299.375 C 159.941406 -287.019531 150.925781 -269.484375 147.46875 -246.765625 Z M 306.046875 -246.765625 "/></g></g></g><g fill="#000000" fill-opacity="1"><g transform="translate(1491.001629, 1101.627571)"><g><path d="M 20.75 -207.484375 C 20.75 -249.972656 28.773438 -287.269531 44.828125 -319.375 C 60.890625 -351.488281 82.75 -376.191406 110.40625 -393.484375 C 138.070312 -410.773438 168.953125 -419.421875 203.046875 -419.421875 C 230.210938 -419.421875 255.035156 -413.738281 277.515625 -402.375 C 299.992188 -391.019531 317.65625 -375.707031 330.5 -356.4375 L 330.5 -548.359375 L 457.21875 -548.359375 L 457.21875 0 L 330.5 0 L 330.5 -59.28125 C 318.644531 -39.519531 301.722656 -23.710938 279.734375 -11.859375 C 257.753906 -0.00390625 232.191406 5.921875 203.046875 5.921875 C 168.953125 5.921875 138.070312 -2.84375 110.40625 -20.375 C 82.75 -37.914062 60.890625 -62.863281 44.828125 -95.21875 C 28.773438 -127.582031 20.75 -165.003906 20.75 -207.484375 Z M 330.5 -206.75 C 330.5 -238.363281 321.726562 -263.3125 304.1875 -281.59375 C 286.65625 -299.875 265.289062 -309.015625 240.09375 -309.015625 C 214.894531 -309.015625 193.523438 -300 175.984375 -281.96875 C 158.453125 -263.9375 149.6875 -239.109375 149.6875 -207.484375 C 149.6875 -175.867188 158.453125 -150.796875 175.984375 -132.265625 C 193.523438 -113.742188 214.894531 -104.484375 240.09375 -104.484375 C 265.289062 -104.484375 286.65625 -113.625 304.1875 -131.90625 C 321.726562 -150.1875 330.5 -175.132812 330.5 -206.75 Z M 330.5 -206.75 "/></g></g></g><g fill="#000000" fill-opacity="1"><g transform="translate(1994.162405, 1101.627571)"><g/></g></g><g fill="#000000" fill-opacity="1"><g transform="translate(2151.26118, 1101.627571)"><g><path d="M 20.75 -207.484375 C 20.75 -249.972656 28.773438 -287.269531 44.828125 -319.375 C 60.890625 -351.488281 82.75 -376.191406 110.40625 -393.484375 C 138.070312 -410.773438 168.953125 -419.421875 203.046875 -419.421875 C 232.191406 -419.421875 257.753906 -413.492188 279.734375 -401.640625 C 301.722656 -389.785156 318.644531 -374.222656 330.5 -354.953125 L 330.5 -413.5 L 457.21875 -413.5 L 457.21875 0 L 330.5 0 L 330.5 -58.546875 C 318.144531 -39.273438 300.972656 -23.710938 278.984375 -11.859375 C 257.003906 -0.00390625 231.441406 5.921875 202.296875 5.921875 C 168.703125 5.921875 138.070312 -2.84375 110.40625 -20.375 C 82.75 -37.914062 60.890625 -62.863281 44.828125 -95.21875 C 28.773438 -127.582031 20.75 -165.003906 20.75 -207.484375 Z M 330.5 -206.75 C 330.5 -238.363281 321.726562 -263.3125 304.1875 -281.59375 C 286.65625 -299.875 265.289062 -309.015625 240.09375 -309.015625 C 214.894531 -309.015625 193.523438 -300 175.984375 -281.96875 C 158.453125 -263.9375 149.6875 -239.109375 149.6875 -207.484375 C 149.6875 -175.867188 158.453125 -150.796875 175.984375 -132.265625 C 193.523438 -113.742188 214.894531 -104.484375 240.09375 -104.484375 C 265.289062 -104.484375 286.65625 -113.625 304.1875 -131.90625 C 321.726562 -150.1875 330.5 -175.132812 330.5 -206.75 Z M 330.5 -206.75 "/></g></g></g><g fill="#000000" fill-opacity="1"><g transform="translate(2654.421843, 1101.627571)"><g><path d="M 105.21875 5.921875 C 82.988281 5.921875 64.832031 -0.617188 50.75 -13.703125 C 36.675781 -26.796875 29.640625 -42.976562 29.640625 -62.25 C 29.640625 -82.007812 36.675781 -98.554688 50.75 -111.890625 C 64.832031 -125.234375 82.988281 -131.90625 105.21875 -131.90625 C 126.957031 -131.90625 144.867188 -125.234375 158.953125 -111.890625 C 173.035156 -98.554688 180.078125 -82.007812 180.078125 -62.25 C 180.078125 -42.976562 173.035156 -26.796875 158.953125 -13.703125 C 144.867188 -0.617188 126.957031 5.921875 105.21875 5.921875 Z M 105.21875 5.921875 "/></g></g></g><g fill="#000000" fill-opacity="1"><g transform="translate(2863.392862, 1101.627571)"><g><path d="M 24.453125 -260.84375 C 24.453125 -312.21875 35.566406 -358.035156 57.796875 -398.296875 C 80.023438 -438.566406 111.023438 -469.9375 150.796875 -492.40625 C 190.566406 -514.882812 235.644531 -526.125 286.03125 -526.125 C 347.789062 -526.125 400.65625 -509.820312 444.625 -477.21875 C 488.59375 -444.613281 517.984375 -400.15625 532.796875 -343.84375 L 393.484375 -343.84375 C 383.109375 -365.570312 368.410156 -382.117188 349.390625 -393.484375 C 330.367188 -404.847656 308.757812 -410.53125 284.5625 -410.53125 C 245.53125 -410.53125 213.910156 -396.941406 189.703125 -369.765625 C 165.492188 -342.597656 153.390625 -306.289062 153.390625 -260.84375 C 153.390625 -215.394531 165.492188 -179.082031 189.703125 -151.90625 C 213.910156 -124.738281 245.53125 -111.15625 284.5625 -111.15625 C 308.757812 -111.15625 330.367188 -116.832031 349.390625 -128.1875 C 368.410156 -139.550781 383.109375 -156.101562 393.484375 -177.84375 L 532.796875 -177.84375 C 517.984375 -121.53125 488.59375 -77.191406 444.625 -44.828125 C 400.65625 -12.472656 347.789062 3.703125 286.03125 3.703125 C 235.644531 3.703125 190.566406 -7.535156 150.796875 -30.015625 C 111.023438 -52.492188 80.023438 -83.738281 57.796875 -123.75 C 35.566406 -163.769531 24.453125 -209.46875 24.453125 -260.84375 Z M 24.453125 -260.84375 "/></g></g></g><g fill="#000000" fill-opacity="1"><g transform="translate(3428.059051, 1101.627571)"><g><path d="M 511.3125 0 L 384.59375 0 L 172.65625 -320.859375 L 172.65625 0 L 45.9375 0 L 45.9375 -520.203125 L 172.65625 -520.203125 L 384.59375 -197.859375 L 384.59375 -520.203125 L 511.3125 -520.203125 Z M 511.3125 0 "/></g></g></g><g fill="#000000" fill-opacity="1"><g transform="translate(3985.315021, 1101.627571)"><g><path d="M 311.234375 0 L 203.046875 -196.375 L 172.65625 -196.375 L 172.65625 0 L 45.9375 0 L 45.9375 -520.203125 L 258.625 -520.203125 C 299.625 -520.203125 334.570312 -513.035156 363.46875 -498.703125 C 392.375 -484.378906 413.988281 -464.742188 428.3125 -439.796875 C 442.644531 -414.847656 449.8125 -387.0625 449.8125 -356.4375 C 449.8125 -321.851562 440.050781 -290.972656 420.53125 -263.796875 C 401.019531 -236.628906 372.242188 -217.363281 334.203125 -206 L 454.25 0 Z M 172.65625 -286.03125 L 251.203125 -286.03125 C 274.421875 -286.03125 291.832031 -291.710938 303.4375 -303.078125 C 315.050781 -314.441406 320.859375 -330.5 320.859375 -351.25 C 320.859375 -371.007812 315.050781 -386.570312 303.4375 -397.9375 C 291.832031 -409.300781 274.421875 -414.984375 251.203125 -414.984375 L 172.65625 -414.984375 Z M 172.65625 -286.03125 "/></g></g></g><g fill="#000000" fill-opacity="1"><g transform="translate(2175.042348, 695.201773)"><g><path d="M -109.671875 456.46875 C -87.441406 456.46875 -69.285156 463.015625 -55.203125 476.109375 C -41.128906 489.203125 -34.09375 505.382812 -34.09375 524.65625 C -34.09375 544.414062 -41.128906 560.835938 -55.203125 573.921875 C -69.285156 587.015625 -87.441406 593.5625 -109.671875 593.5625 C -131.410156 593.5625 -149.316406 587.015625 -163.390625 573.921875 C -177.472656 560.835938 -184.515625 544.414062 -184.515625 524.65625 C -184.515625 505.382812 -177.472656 489.203125 -163.390625 476.109375 C -149.316406 463.015625 -131.410156 456.46875 -109.671875 456.46875 Z M -172.65625 413.5 L -172.65625 0 L -45.9375 0 L -45.9375 413.5 Z M -172.65625 413.5 "/></g></g></g><g clip-path="url(#657ffe1ca0)"><g clip-path="url(#6be8b1e9b9)"><path fill="#ffffff" d="M 1713.144531 1139.820312 L 2418.328125 1139.820312 L 2418.328125 1845 L 1713.144531 1845 Z M 1713.144531 1139.820312 " fill-opacity="1" fill-rule="nonzero"/></g></g><g clip-path="url(#fd898586d9)"><g clip-path="url(#ed65bd1d49)"><path fill="#ff0000" d="M 1996.828125 1172.175781 L 2134.644531 1172.175781 L 2134.644531 1309.992188 L 1996.828125 1309.992188 Z M 1996.828125 1172.175781 " fill-opacity="1" fill-rule="nonzero"/></g></g></svg>